<?xml version="1.0" standalone="no"?>
<!DOCTYPE svg PUBLIC "-//W3C//DTD SVG 20010904//EN"
 "http://www.w3.org/TR/2001/REC-SVG-20010904/DTD/svg10.dtd">
<svg version="1.0" xmlns="http://www.w3.org/2000/svg"
 width="261.000000pt" height="261.000000pt" viewBox="0 0 261.000000 261.000000"
 preserveAspectRatio="xMidYMid meet">
<metadata>
Created by potrace 1.11, written by Peter Selinger 2001-2013
</metadata>
<g transform="translate(0.000000,261.000000) scale(0.100000,-0.100000)"
fill="#000000" stroke="none">
<path d="M1175 2550 c-64 -42 -65 -47 -65 -446 0 -302 -2 -363 -14 -367 -12
-5 -14 35 -13 256 2 248 1 263 -18 289 -37 50 -112 70 -167 44 -63 -30 -63
-27 -66 -402 l-3 -342 -42 -16 c-24 -9 -48 -16 -55 -16 -9 0 -12 52 -12 210 0
236 -6 266 -62 300 -40 24 -118 27 -153 4 -56 -36 -56 -48 -53 -674 l4 -575
26 -96 c95 -350 313 -570 638 -645 109 -25 284 -25 414 1 201 40 413 193 529
380 78 127 104 235 74 308 -35 82 -137 104 -219 46 -16 -12 -47 -61 -79 -126
-77 -157 -181 -254 -361 -338 -132 -61 -150 -62 -244 -26 -252 98 -419 294
-449 526 -4 28 -8 59 -9 70 -2 11 1 57 5 103 15 151 75 244 179 281 115 41
225 8 319 -95 l52 -57 16 24 c30 44 89 95 136 117 58 27 108 32 174 17 111
-26 178 -100 207 -225 8 -39 25 -83 37 -100 26 -34 81 -59 124 -55 17 2 35 3
42 4 24 2 82 63 89 94 35 149 -133 433 -345 585 -93 67 -260 135 -364 148 -23
3 -48 7 -54 9 -10 3 -13 84 -13 357 0 336 -1 355 -20 386 -36 59 -128 80 -185
42z"/>
</g>
</svg>
