<?xml version="1.0" encoding="utf-8"?>
<!-- Generator: Adobe Illustrator 16.0.0, SVG Export Plug-In . SVG Version: 6.00 Build 0)  -->
<!DOCTYPE svg PUBLIC "-//W3C//DTD SVG 1.1//EN" "http://www.w3.org/Graphics/SVG/1.1/DTD/svg11.dtd">
<svg version="1.1" id="Layer_1" xmlns="http://www.w3.org/2000/svg" xmlns:xlink="http://www.w3.org/1999/xlink" x="0px" y="0px"
	 width="40px" height="40px" viewBox="620 380 40 40" enable-background="new 620 380 40 40" xml:space="preserve">
<g>
	<path fill="#FFFFFF" d="M658.827,385.401c-0.037-0.484-0.437-0.866-0.928-0.866h-35.566c-0.493,0-0.892,0.382-0.929,0.866
		l-0.007,24.029c0,0.517,0.419,0.936,0.936,0.936h35.566c0.516,0,0.935-0.419,0.935-0.936L658.827,385.401z M657.336,405.874h-34.44
		v-19.842h34.44V405.874z"/>
	<path fill="#FFFFFF" d="M646.105,414.859c-1.497-0.375-1.873-1.498-1.873-2.996v-0.373h-4.117h-4.119v0.373
		c0,1.498-0.374,2.621-1.871,2.996c-0.364,0.089-0.375,0.748,0,0.748h5.989h5.99C646.479,415.607,646.468,414.948,646.105,414.859z"
		/>
</g>
</svg>
