<?xml version="1.0" encoding="utf-8"?>
<!-- Generator: Adobe Illustrator 16.0.0, SVG Export Plug-In . SVG Version: 6.00 Build 0)  -->
<!DOCTYPE svg PUBLIC "-//W3C//DTD SVG 1.1//EN" "http://www.w3.org/Graphics/SVG/1.1/DTD/svg11.dtd">
<svg version="1.1" id="Layer_1" xmlns="http://www.w3.org/2000/svg" xmlns:xlink="http://www.w3.org/1999/xlink" x="0px" y="0px"
	 width="40px" height="40px" viewBox="620 380 40 40" enable-background="new 620 380 40 40" xml:space="preserve">
<g>
	<path fill="#FFFFFF" d="M658.645,395.96c-0.141-0.646-0.617-0.674-0.617-0.674c-0.388-0.11-0.776-0.156-1.153-0.158
		c-1.664-5.755-6.199-10.291-11.955-11.954c-0.003-0.378-0.049-0.767-0.159-1.154c0,0-0.027-0.478-0.671-0.618
		c-1.326-0.287-2.689-0.342-4.04-0.365c-1.356-0.022-2.71,0.078-4.041,0.365c-0.645,0.141-0.673,0.618-0.673,0.618
		c-0.11,0.387-0.157,0.776-0.158,1.154c-5.755,1.664-10.291,6.199-11.954,11.954c-0.378,0.002-0.768,0.048-1.154,0.158
		c0,0-0.478,0.028-0.617,0.673c-0.288,1.325-0.343,2.688-0.366,4.039c-0.022,1.355,0.077,2.711,0.366,4.04
		c0.14,0.645,0.617,0.673,0.617,0.673c0.386,0.11,0.776,0.156,1.154,0.158c1.662,5.757,6.199,10.292,11.954,11.956
		c0.002,0.377,0.048,0.767,0.158,1.153c0,0,0.028,0.477,0.673,0.617c1.325,0.288,2.688,0.343,4.04,0.365
		c1.355,0.022,2.71-0.077,4.039-0.365c0.646-0.141,0.673-0.617,0.673-0.617c0.11-0.387,0.156-0.776,0.159-1.153
		c5.756-1.663,10.292-6.199,11.955-11.956c0.378-0.002,0.767-0.048,1.153-0.158c0,0,0.477-0.028,0.617-0.673
		c0.289-1.324,0.343-2.688,0.365-4.039C659.032,398.645,658.934,397.291,658.645,395.96z M636.078,386.572
		c0.581,2.036,0.186,3.704-0.145,4.593c-2.075,0.967-3.752,2.645-4.719,4.719c-0.89,0.332-2.557,0.727-4.594,0.144
		C627.961,391.49,631.54,387.912,636.078,386.572z M636.076,413.429c-4.539-1.34-8.116-4.92-9.456-9.458
		c2.035-0.583,3.702-0.188,4.592,0.143c0.967,2.074,2.645,3.754,4.72,4.721C636.264,409.724,636.659,411.393,636.076,413.429z
		 M640.048,406.605c-3.648,0-6.605-2.958-6.605-6.605c0-3.648,2.958-6.605,6.605-6.605c3.647,0,6.605,2.957,6.605,6.605
		C646.653,403.647,643.695,406.605,640.048,406.605z M644.019,413.429c-0.583-2.036-0.188-3.703,0.142-4.594
		c2.077-0.966,3.755-2.646,4.722-4.722c0.891-0.33,2.558-0.726,4.595-0.143C652.137,408.51,648.558,412.089,644.019,413.429z
		 M648.882,395.887c-0.966-2.076-2.644-3.754-4.72-4.721c-0.331-0.89-0.727-2.558-0.144-4.593c4.539,1.339,8.118,4.918,9.458,9.457
		C651.44,396.611,649.772,396.217,648.882,395.887z"/>
</g>
</svg>
