<?xml version="1.0" encoding="utf-8"?>
<!-- Generator: Adobe Illustrator 16.0.0, SVG Export Plug-In . SVG Version: 6.00 Build 0)  -->
<!DOCTYPE svg PUBLIC "-//W3C//DTD SVG 1.1//EN" "http://www.w3.org/Graphics/SVG/1.1/DTD/svg11.dtd">
<svg version="1.1" id="Capa_1" xmlns="http://www.w3.org/2000/svg" xmlns:xlink="http://www.w3.org/1999/xlink" x="0px" y="0px"
	 width="48px" height="48px" viewBox="0 0 48 48" enable-background="new 0 0 48 48" xml:space="preserve">
<g>
	<path id="Facebook__x28_alt_x29_" fill="#EC407A" d="M47.5,8.334c0-4.116-3.716-7.834-7.833-7.834H8.333
		C4.216,0.5,0.5,4.218,0.5,8.334v31.332c0,4.116,3.716,7.834,7.834,7.834H24V29.744h-5.745v-7.833H24v-3.052
		c0-5.265,3.952-10.004,8.813-10.004h6.332v7.832h-6.332c-0.692,0-1.5,0.842-1.5,2.102v3.121h7.832v7.833h-7.832V47.5h8.354
		c4.117,0,7.833-3.718,7.833-7.834V8.334z"/>
</g>
</svg>
