<?xml version="1.0" encoding="utf-8"?>
<!-- Generator: Adobe Illustrator 16.0.0, SVG Export Plug-In . SVG Version: 6.00 Build 0)  -->
<!DOCTYPE svg PUBLIC "-//W3C//DTD SVG 1.1//EN" "http://www.w3.org/Graphics/SVG/1.1/DTD/svg11.dtd">
<svg version="1.1" xmlns="http://www.w3.org/2000/svg" xmlns:xlink="http://www.w3.org/1999/xlink" x="0px" y="0px" width="1024px"
	 height="562.472px" viewBox="0 0 1024 562.472" enable-background="new 0 0 1024 562.472" xml:space="preserve">
<g id="Layer_1">
</g>
<g id="Layer_2">
	<g>
		<path fill="#FFFFFF" d="M101.938,135.891c0,0,22.063-1.375,22.063,21.125v54.5l5-5.5v-83.5c0,0,0.25-20,18.25-22.5
			c0,0,23.125-1,22.125,22.5l-0.093,63l5.718-2v-96c0,0,0.625-17.05,18.875-20.4c0,0,21.125,0.4,21.125,20.4v93
			c0,0,43,1.5,77.5,38.5c0,0,20.375,21.75,27.125,47.5c0,0,8.813,23.25-11.188,30.5c0,0-23.219,7.375-28.469-18.252
			c0,0-1.734-32.748-36.484-35.498c0,0-24.492-2.5-38.992,24c0,0-22.246-39.5-60.996-18c0,0-15.498,10.25-16.498,39.5
			c0,0-10.999,73,76.751,99c0,0,59.501-15.25,73.751-59.5c0,0,8.25-24,29.75-17.25c0,0,17,6,11,28.25c0,0-11.25,44.5-59.25,68.5
			c0,0-63.75,35.5-130.5-12.75c0,0-44.5-33.75-44.5-107.5v-130C84,157.517,84.542,135.932,101.938,135.891z"/>
		<g>
			<path fill="#FFFFFF" d="M374.219,229.528c-3.634,0-6.745,0.862-9.461,2.584c-2.718,1.724-4.758,4.308-6.758,7.754v-9.35h-9v67h9
				v-23.199c3,3.506,5.767,5.501,8.425,5.984c2.657,0.483,4.764,0.725,6.386,0.725c4.083,0,7.723-1.255,10.951-3.766
				s5.6-5.883,7.131-10.119c1.532-4.234,2.294-8.696,2.294-13.385c0-7.199-1.655-13.037-4.958-17.514
				C384.926,231.767,380.255,229.528,374.219,229.528z M380.58,268.78c-2.086,3.692-5.305,5.537-9.656,5.537
				c-2.071,0-3.941-0.348-5.742-1.044c-1.801-0.696-4.182-2.406-7.182-5.129V245.45c2-2.723,4.698-4.758,7.114-6.104
				c2.415-1.346,4.822-2.02,7.283-2.02c3.871,0,6.713,1.558,8.559,4.675s2.761,7.339,2.761,12.664
				C383.717,260.383,382.665,265.088,380.58,268.78z"/>
			<path fill="#FFFFFF" d="M420.355,232.226c-2.706,1.799-5.355,4.345-6.355,7.641v-9.35h-9v49h9V247.4
				c1-3.358,3.801-5.877,6.174-7.556c2.372-1.679,4.95-2.519,7.76-2.519c1.209,0,2.066,0.257,4.066,0.771v-8.341
				c-1-0.151-1.935-0.227-2.841-0.227C425.985,229.528,423.06,230.427,420.355,232.226z"/>
			<path fill="#FFFFFF" d="M457.743,229.528c-4.294,0-8.028,1.013-11.201,3.037c-3.174,2.025-5.742,5.123-7.705,9.293
				c-1.963,4.171-2.943,8.568-2.943,13.192c0,7.012,2.224,13.094,6.67,18.247c4.447,5.153,10.317,7.729,18.076,7.729
				c4.324,0,9.361-0.907,15.361-2.72v-7.072c-3,1.36-6.365,2.199-8.197,2.516c-1.834,0.317-3.558,0.476-5.405,0.476
				c-3.634,0-6.571-0.658-8.927-1.972c-2.356-1.315-4.213-3.234-5.63-5.591c-1.417-2.357-2.343-5.147-2.835-10.147h31.643
				l0.045-2.637c0-8.13-1.718-14.193-5.151-18.273C468.107,231.526,463.506,229.528,457.743,229.528z M445.413,249.517
				c0.404-4,1.594-7.803,3.569-10.085c1.976-2.281,4.721-3.309,8.235-3.309c3.079,0,5.606,0.887,7.582,3.002
				c1.975,2.116,2.963,6.391,2.963,10.391H445.413z"/>
			<polygon fill="#FFFFFF" points="503.896,268.824 489.598,230.517 480.64,230.517 498.955,279.517 507.885,279.517 
				527.334,230.517 519.027,230.517 			"/>
			<path fill="#FFFFFF" d="M551.951,229.528c-4.293,0-8.027,1.013-11.201,3.037c-3.174,2.025-5.742,5.123-7.705,9.293
				c-1.963,4.171-2.943,8.568-2.943,13.192c0,7.012,2.225,13.094,6.67,18.247c4.447,5.153,10.713,7.729,18.471,7.729
				c4.324,0,9.758-0.907,15.758-2.72v-7.072c-4,1.36-6.762,2.199-8.594,2.516c-1.834,0.317-3.755,0.476-5.603,0.476
				c-3.633,0-6.669-0.658-9.024-1.972c-2.357-1.315-4.263-3.234-5.681-5.591c-1.416-2.357-2.392-5.147-2.884-10.147h31.643
				l0.045-2.637c0-8.13-1.719-14.193-5.152-18.273S557.715,229.528,551.951,229.528z M539.621,249.517
				c0.404-4,1.594-7.803,3.57-10.085c1.975-2.281,4.721-3.309,8.234-3.309c3.08,0,5.607,0.887,7.582,3.002
				c1.975,2.116,2.963,6.391,2.963,10.391H539.621z"/>
			<path fill="#FFFFFF" d="M609.145,229.528c-3.234,0-6.291,0.899-9.297,2.698c-3.008,1.799-5.848,4.345-7.848,7.641v-9.35h-9v49h9
				V247.99c3-4.447,5.701-7.352,8.256-8.713c2.553-1.362,4.901-2.042,7.106-2.042c1.24,0,2.386,0.295,3.474,0.886
				c1.09,0.59,1.795,1.429,2.398,2.519c0.605,1.089,0.766,3.343,0.766,6.761v32.117h9v-35.015c0-4.688-1.2-8.356-3.8-11.003
				C616.601,230.852,613.314,229.528,609.145,229.528z"/>
			<path fill="#FFFFFF" d="M647,220.869l-9,0.861v8.786h-6v7h6v28.777c0,4.715,1.369,8.349,3.969,10.903
				c2.598,2.554,6.279,3.831,10.693,3.831c2.023,0,4.338-0.378,7.338-1.133v-6.166c-2,0.393-3.271,0.589-4.448,0.589
				c-2.902,0-5.122-0.748-6.452-2.244c-1.33-1.496-2.1-3.967-2.1-7.412v-27.145h13v-7h-13V220.869z"/>
			<rect x="670" y="212.517" fill="#FFFFFF" width="9" height="9"/>
			<rect x="670" y="230.517" fill="#FFFFFF" width="9" height="49"/>
			<polygon fill="#FFFFFF" points="708.932,268.824 694.633,230.517 685.676,230.517 703.99,279.517 712.92,279.517 
				732.369,230.517 724.063,230.517 			"/>
			<path fill="#FFFFFF" d="M778.885,274.635c-0.756,0.121-1.33,0.182-1.723,0.182c-0.938,0-1.762-0.227-2.471-0.681
				c-0.711-0.453-1.487-1.111-1.88-1.974c-0.393-0.862-0.812-2.534-0.812-5.014v-22.326c0-4.387-0.511-7.571-1.979-9.553
				c-1.469-1.981-3.323-3.433-5.786-4.356c-2.463-0.922-5.124-1.384-8.062-1.384c-5.385,0-11.173,1.224-17.173,3.672v7.39
				c6-2.901,10.713-4.352,15.416-4.352c2.029,0,3.735,0.303,5.103,0.909c1.367,0.606,2.622,1.448,3.267,2.524
				c0.646,1.077,1.215,2.797,1.215,5.162v5.685h-2.6c-9.289,0-16.051,1.716-20.279,4.874c-4.232,3.158-6.348,7.223-6.348,12.059
				c0,4.413,1.518,7.802,4.551,10.098c3.033,2.297,6.311,3.462,9.836,3.462c2.512,0,5.078-0.611,7.697-1.85
				c2.619-1.239,5.277-3.079,7.973-5.527c0.664,2.811,1.754,4.748,3.264,5.805c1.512,1.057,3.084,1.587,4.715,1.587
				c2.449,0,4.686-0.483,6.711-1.45L778.885,274.635z M764,268.787c-3,1.632-4.285,2.864-6.26,3.695
				c-1.975,0.832-4.039,1.247-5.953,1.247c-2.129,0-4.049-0.74-5.639-2.221c-1.588-1.48-2.413-3.294-2.413-5.44
				c0-3.113,1.604-5.576,4.845-7.39c3.24-1.813,7.486-2.72,12.27-2.72l3.15,0.09V268.787z"/>
		</g>
		<g>
			<g>
				<path fill="#FFFFFF" d="M505.222,398.704c-5.734-2.662-9.677-8.704-11.827-18.125c-2.15-9.422-3.738-19.798-4.762-31.132
					c-1.093-11.195-2.903-19.644-5.428-25.345c-2.526-5.699-6.554-8.551-12.084-8.551c-6.623,0-12.646,3.005-18.074,9.012
					c-5.428,6.008-11.009,14.781-16.743,26.317c-10.719,21.848-17.683,32.771-20.891,32.771c-0.41,0-1.06-1.365-1.946-4.097
					c-0.888-2.729-1.399-6.895-1.536-12.493c-0.547-22.392-2.134-36.559-4.762-42.498c-2.629-5.939-6.161-8.909-10.599-8.909
					c-5.872,0-11.556,2.544-17.051,7.629c-5.496,5.087-14.047,17.119-25.652,36.098c-8.192,13.86-14.405,22.836-18.637,26.933
					c0.067-3.687,1.57-14.063,4.505-31.131c2.525-14.951,3.789-24.987,3.789-30.107c0-10.922-3.789-16.385-11.367-16.385
					c-4.029,0-6.042,2.253-6.042,6.759c0,4.574-0.888,12.187-2.663,22.836c-4.301,26.285-6.451,44.444-6.451,54.479
					c0,17.818,2.286,26.728,6.861,26.728c2.048,0,4.625-0.442,7.732-1.331c3.105-0.886,5.238-1.895,6.4-3.021
					c1.16-1.127,5.256-8.004,12.288-20.635c20.822-37.48,34.408-56.287,40.758-56.425c2.729,3.55,4.607,16.112,5.632,37.685
					c0.682,12.972,1.331,21.113,1.945,24.424c0.615,3.312,2.082,6.145,4.403,8.499c2.32,2.355,4.949,3.533,7.886,3.533
					c3.276,0,6.672-2.166,10.189-6.503c3.515-4.334,8.687-13.021,15.514-26.062c8.738-16.726,15.07-27.819,18.996-33.281
					s7.322-8.192,10.189-8.192c1.911,0,3.311,1.878,4.199,5.632c0.886,3.755,1.808,10.104,2.765,19.047
					c2.184,22.258,5.428,36.73,9.729,43.42c4.301,6.691,9.181,10.036,14.644,10.036c2.729,0,5.735-1.263,9.012-3.789
					c3.277-2.525,4.916-4.982,4.916-7.373C511.06,402.698,509.113,400.548,505.222,398.704z"/>
				<path fill="#FFFFFF" d="M607.378,379.146c-1.162,0-2.868,1.126-5.121,3.379c-15.293,16.249-30.278,24.372-44.955,24.372
					c-6.418,0-11.265-1.705-14.542-5.12c-3.276-3.413-4.915-7.952-4.915-13.62c0-2.934,1.774-5.324,5.325-7.168
					c17.271-9.283,31.062-18.74,41.371-28.366c10.308-9.626,15.463-19.695,15.463-30.209c0-4.711-1.622-8.738-4.864-12.084
					c-3.243-3.345-7.424-5.018-12.544-5.018c-15.635,0-30.04,8.807-43.215,26.42c-13.177,17.614-19.765,36.185-19.765,55.708
					c0,11.607,2.986,20.652,8.961,27.138c5.973,6.485,14.455,9.729,25.447,9.729c13.108,0,25.822-4.915,38.146-14.746
					c12.322-9.831,18.484-18.229,18.484-25.191C610.654,380.886,609.562,379.146,607.378,379.146z M556.124,334.599
					c7.885-9.216,14.967-13.824,21.249-13.824c3.687,0,5.529,2.048,5.529,6.145c0,10.445-14.474,24.27-43.419,41.474
					C542.691,355.08,548.238,343.815,556.124,334.599z"/>
				<path fill="#FFFFFF" d="M744.759,394.506c-0.273,0-0.684,0.138-1.229,0.409c-3.21,1.503-5.872,2.253-7.988,2.253
					c-3.346,0-5.785-2.063-7.321-6.195c-1.536-4.13-3.261-14.626-5.172-31.489c-1.775-14.813-4.592-25.021-8.448-30.619
					c-3.857-5.597-8.858-8.397-15.002-8.397c-7.716,0-14.782,3.38-21.198,10.139c-6.418,6.759-13.894,18.433-22.427,35.022
					c-8.466,16.317-13.21,24.475-14.234,24.475c-0.547,0-0.819-0.546-0.819-1.639c0-1.91,0.682-6.416,2.049-13.518
					c4.096-21.505,6.144-35.704,6.144-42.601c0-6.621-0.752-11.024-2.253-13.21c-1.502-2.184-4.028-3.277-7.577-3.277
					c-1.981,0-4.081,1.588-6.298,4.763c-2.22,3.174-3.328,6.06-3.328,8.652c0,22.872-1.879,44.615-5.633,65.232
					c-1.093,6.008-1.639,10.65-1.639,13.927c0,7.783,4.027,11.675,12.084,11.675c2.185,0,4.932-1.501,8.243-4.506
					c3.312-3.004,10.633-15.361,21.967-37.071c8.602-16.18,15.002-26.59,19.2-31.233c4.199-4.642,8.072-6.963,11.623-6.963
					c6.145,0,10.172,10.035,12.084,30.106c1.844,20.005,4.353,32.309,7.526,36.917c3.175,4.608,7.663,6.912,13.467,6.912
					c5.666,0,10.513-1.689,14.541-5.068c4.027-3.38,6.042-6.57,6.042-9.575C749.162,396.213,747.693,394.506,744.759,394.506z"/>
				<path fill="#FFFFFF" d="M845.275,314.221c-1.366-0.956-4.643-1.434-9.83-1.434c-4.097,0-9.217,0.342-15.361,1.023
					c-6.213,0.752-12.836,1.4-19.866,1.946l5.939-21.506c2.458-8.807,3.687-13.687,3.687-14.644c0-1.774-0.819-3.687-2.458-5.734
					c-1.639-2.048-3.927-3.072-6.861-3.072c-4.779,0-7.987,3.584-9.626,10.752c-1.638,7.237-3.517,14.56-5.632,21.967
					c-2.117,7.408-3.722,11.757-4.813,13.054c-1.093,1.297-2.355,1.943-3.789,1.943h-21.095c-4.029,0-6.042,1.982-6.042,5.941
					c0,6.965,4.368,10.447,13.107,10.447l10.65-0.922c1.639,0,2.458,0.513,2.458,1.537c0,2.937-1.674,11.743-5.019,26.421
					c-3.414,14.746-5.12,25.636-5.12,32.667c0,19.457,8.26,29.186,24.782,29.186c9.898,0,19.575-3.909,29.032-11.726
					c9.454-7.816,14.183-14.184,14.183-19.099c0-3.14-1.469-4.711-4.403-4.711c-2.186,0-5.292,1.81-9.319,5.428
					c-10.445,8.807-18.604,13.21-24.475,13.21c-3.96,0-6.93-1.244-8.909-3.737c-1.98-2.491-2.97-7.491-2.97-15.003
					c0-4.642,1.741-14.729,5.223-30.26c3.482-15.53,5.546-23.656,6.195-24.373c0.648-0.717,5.137-1.621,13.467-2.714
					c8.328-1.091,17.442-1.945,27.342-2.56c7.714-0.477,11.572-3.481,11.572-9.012C847.324,316.85,846.641,315.177,845.275,314.221z
					"/>
				<path fill="#FFFFFF" d="M934.938,379.146c-1.162,0-2.868,1.126-5.121,3.379c-15.293,16.249-30.278,24.372-44.955,24.372
					c-6.418,0-11.265-1.705-14.542-5.12c-3.276-3.413-4.915-7.952-4.915-13.62c0-2.934,1.774-5.324,5.325-7.168
					c17.271-9.283,31.062-18.74,41.371-28.366c10.308-9.626,15.463-19.695,15.463-30.209c0-4.711-1.622-8.738-4.864-12.084
					c-3.243-3.345-7.424-5.018-12.544-5.018c-15.635,0-30.04,8.807-43.215,26.42c-13.177,17.614-19.765,36.185-19.765,55.708
					c0,11.607,2.986,20.652,8.961,27.138c5.973,6.485,14.455,9.729,25.447,9.729c13.108,0,25.822-4.915,38.146-14.746
					c12.322-9.831,18.484-18.229,18.484-25.191C938.215,380.886,937.122,379.146,934.938,379.146z M883.685,334.599
					c7.885-9.216,14.967-13.824,21.249-13.824c3.687,0,5.529,2.048,5.529,6.145c0,10.445-14.474,24.27-43.419,41.474
					C870.252,355.08,875.799,343.815,883.685,334.599z"/>
			</g>
			<path fill="#FFFFFF" d="M304.5,302.684c0,0,3.167-5.667,12.5-1.667c0,0,21.547,6.807,24.058,12.707L326,319.351
				c0,0-3.5-6.166-13.667-9C312.333,310.351,302.833,307.684,304.5,302.684z"/>
		</g>
		<g>
			<path fill="#FFFFFF" d="M531.853,461.029c-2.123-0.535-3.644-1.214-4.562-2.036c-0.938-0.842-1.405-1.941-1.405-3.3
				c0-1.415,0.453-2.577,1.361-3.485s2.079-1.363,3.513-1.363c1.262,0,2.38,0.341,3.354,1.022c0.976,0.681,1.73,1.645,2.266,2.892
				c0.307-0.805,0.595-1.485,0.863-2.041c0.25-0.556,0.585-1.198,1.007-1.926c-0.898-0.632-1.96-1.121-3.185-1.466
				c-1.224-0.346-2.534-0.518-3.93-0.518c-2.544,0-4.69,0.799-6.441,2.396c-1.75,1.597-2.625,3.553-2.625,5.866
				c0,2.353,0.574,4.15,1.722,5.394c1.166,1.244,3.185,2.229,6.054,2.955c2.142,0.556,3.682,1.244,4.619,2.065
				c0.937,0.823,1.405,1.903,1.405,3.242c0,1.55-0.545,2.816-1.635,3.802c-1.091,0.985-2.486,1.478-4.188,1.478
				c-1.473,0-2.792-0.364-3.958-1.092c-1.167-0.728-2.113-1.771-2.84-3.131c-0.269,0.823-0.518,1.527-0.747,2.11
				c-0.229,0.584-0.526,1.269-0.891,2.053c0.842,0.708,1.903,1.235,3.185,1.579c1.281,0.345,2.793,0.517,4.533,0.517
				c2.869,0,5.293-0.913,7.272-2.739s2.97-4.069,2.97-6.728c0-2.047-0.574-3.634-1.722-4.763
				C536.682,462.685,534.683,461.757,531.853,461.029z"/>
			<path fill="#FFFFFF" d="M567.599,475.948c-0.573,0-0.924-0.239-1.229-0.718c-0.307-0.478-0.369-1.186-0.369-2.123v-14.89
				c0-3.021-0.989-5.345-2.787-6.971s-4.415-2.438-7.762-2.438c-1.512,0-3.111,0.301-4.757,0.903
				c-1.645,0.603-3.091,1.411-4.313,2.424l0.022,3.328l0.66,0.016c0.688-1.535,1.651-2.682,2.895-3.439
				c1.242-0.759,2.771-1.138,4.588-1.138c2.238,0,3.748,0.622,4.905,1.865s1.549,3.06,1.549,5.45v0.402
				c0,0.86,0.038,1.468-0.258,1.821c-0.297,0.354-0.781,0.617-1.643,0.789l-7.212,1.406c-2.64,0.497-4.62,1.415-5.987,2.754
				s-2.039,3.041-2.039,5.106c0,2.238,0.761,4.055,2.272,5.451c1.511,1.396,3.483,2.094,5.913,2.094
				c2.543,0,4.916-0.698,7.115-2.094c0.822-0.517,1.541-1.09,2.153-1.722c0.19,0.938,0.46,1.712,0.804,2.324
				c0.612,0.994,1.482,1.491,2.611,1.491c1.721,0.02,3.127-0.286,4.217-0.918l-0.315-1.291
				C568.363,475.91,568.02,475.948,567.599,475.948z M561,471.473c0,0.842-1.133,1.549-1.993,2.123
				c-1.339,0.86-2.843,1.291-4.698,1.291c-1.664,0-2.899-0.431-3.798-1.291c-0.899-0.86-1.325-2.085-1.325-3.672
				c0-1.53,0.566-2.783,1.676-3.759s2.593-1.683,4.812-2.123L561,463.01V471.473z"/>
			<path fill="#FFFFFF" d="M580.753,435.123c0.048-0.669,0.11-1.186,0.187-1.549c-0.799,0.134-1.703,0.201-2.711,0.201
				c-1.027,0-1.941-0.067-2.74-0.201c0.115,0.479,0.196,1.052,0.244,1.722c0.048,0.669,0.081,1.778,0.101,3.328l0.144,16.84
				c0,6.446-0.058,12.098-0.173,16.955c-0.038,1.626-0.076,2.773-0.114,3.443c-0.058,0.688-0.125,1.224-0.201,1.606
				c0.799-0.096,1.703-0.144,2.711-0.144c1.028,0,1.941,0.048,2.74,0.144c-0.114-0.612-0.196-1.253-0.244-1.922
				c-0.048-0.67-0.081-1.712-0.101-3.128l-0.143-16.983c0-6.388,0.047-11.992,0.143-16.812
				C580.652,436.96,580.705,435.793,580.753,435.123z"/>
			<path fill="#FFFFFF" d="M614.454,452.695c0.058-1.348,0.164-2.453,0.318-3.313c-0.803,0.134-1.712,0.201-2.726,0.201
				s-1.922-0.067-2.725-0.201c0.095,0.497,0.17,1.079,0.228,1.748s0.204,1.768,0.241,3.296c0.074,2.617,0.209,5.588,0.209,8.912
				v2.149c0,3.076-0.705,5.411-1.922,7.007c-1.215,1.595-3.049,2.393-5.403,2.393c-2.125,0-3.734-0.717-4.931-2.149
				s-1.744-3.42-1.744-5.961v-3.438l0.02-8.912c0.02-1.49,0.02-2.569,0.078-3.238c0.057-0.669,0.135-1.271,0.269-1.806
				c-0.803,0.134-1.721,0.201-2.734,0.201c-1.033,0-1.956-0.067-2.759-0.201c0.095,0.497,0.168,1.079,0.225,1.748
				c0.058,0.669,0.104,1.768,0.143,3.297c0.076,2.617,0.114,5.589,0.114,8.913l-0.029,4.729c0,3.058,0.832,5.484,2.496,7.28
				s3.911,2.693,6.742,2.693c3.117,0,5.603-1.074,7.687-3.225c0.709-0.742,1.75-1.551,1.75-2.427v0.028
				c0,1.474-0.029,2.549-0.086,3.228c-0.059,0.68-0.076,1.287-0.173,1.822c0.727-0.096,1.578-0.144,2.496-0.144
				c0.937,0,1.783,0.048,2.511,0.144c-0.152-1.128-0.25-2.032-0.307-2.711c-0.058-0.679-0.083-1.459-0.083-2.339l0.007-12.938
				C614.365,456.306,614.396,454.044,614.454,452.695z"/>
			<path fill="#FFFFFF" d="M646.996,435.123c0.048-0.669,0.12-1.186,0.216-1.549c-0.804,0.134-1.712,0.201-2.726,0.201
				c-1.033,0-1.951-0.067-2.754-0.201c0.076,0.363,0.138,0.88,0.187,1.549c0.047,0.67,0.1,1.837,0.157,3.501
				c0.096,4.418,0.134,9.458,0.115,15.119l-0.688-0.947c-2.162-2.658-4.982-3.987-8.464-3.987c-3.729,0-6.756,1.367-9.08,4.103
				c-2.323,2.735-3.485,6.312-3.485,10.729c0,4.284,1.075,7.756,3.228,10.414c2.151,2.658,4.958,3.987,8.42,3.987
				c3.71,0,6.665-1.338,8.865-4.016c0.688-0.861,1.271-1.788,1.75-2.783l-0.058,1.176c-0.096,1.703-0.172,2.889-0.229,3.558
				c-0.058,0.67-0.125,1.167-0.201,1.492c0.728-0.096,1.55-0.144,2.468-0.144c0.937,0,1.769,0.048,2.496,0.144
				c-0.115-0.612-0.196-1.253-0.244-1.922c-0.048-0.67-0.081-1.712-0.101-3.128l-0.144-16.983c0-6.388,0.048-11.992,0.144-16.812
				C646.905,436.96,646.948,435.793,646.996,435.123z M639.882,472.232c-1.54,2.229-3.62,3.343-6.24,3.343
				c-2.506,0-4.438-1.019-5.795-3.056c-1.358-2.037-2.037-4.938-2.037-8.707c0-4.093,0.693-7.205,2.08-9.338
				s3.418-3.199,6.097-3.199c2.62,0,4.643,1.033,6.067,3.099s2.138,5.002,2.138,8.808S641.421,470.005,639.882,472.232z"/>
			<path fill="#FFFFFF" d="M691.016,449.382c-0.096,1.32-0.344,2.654-0.746,4.002c-0.401,1.349-1.138,3.381-2.209,6.097
				c-1.201,3.118-2.545,6.563-4.033,10.179l-0.771,1.857h-0.01l-3.335-7.797c-1.112-2.582-2.108-5.021-2.99-7.24
				c-0.708-1.702-1.2-3.047-1.478-3.994c-0.277-0.946-0.464-1.984-0.56-3.094c-0.974,0.096-2.071,0.139-3.293,0.139
				c-1.24,0-2.348-0.05-3.321-0.146c0.287,0.421,0.603,0.964,0.947,1.634c0.344,0.669,0.898,1.807,1.664,3.414
				c1.242,2.658,2.59,5.67,4.043,9.036c2.387,5.466,4.316,10.11,5.788,13.934l-3.814,6.946c-0.555,1.015-1.052,1.861-1.491,2.542
				c-0.44,0.679-1.033,1.517-1.779,2.513c0.747-0.096,1.6-0.144,2.558-0.144c0.957,0,1.81,0.048,2.557,0.144
				c0.153-0.708,0.345-1.401,0.574-2.08s0.603-1.669,1.118-2.969c1.722-4.438,3.835-9.496,6.341-15.177
				c2.467-5.623,4.705-10.539,6.713-14.746c0.822-1.702,1.406-2.888,1.75-3.558c0.363-0.67,0.66-1.167,0.89-1.492
				c-0.747,0.096-1.599,0.144-2.556,0.144S691.763,449.478,691.016,449.382z"/>
			<path fill="#FFFFFF" d="M731.551,448.809c-3.637,0-6.584,1.482-8.843,4.446c-0.363,0.479-0.688,0.976-0.976,1.492
				c-0.038-6.063,0.004-11.438,0.128-16.123c0.058-1.664,0.109-2.831,0.157-3.501c0.048-0.669,0.11-1.186,0.187-1.549
				c-0.803,0.134-1.712,0.201-2.725,0.201c-1.033,0-1.95-0.067-2.754-0.201c0.096,0.363,0.167,0.88,0.216,1.549
				c0.047,0.67,0.09,1.837,0.129,3.501c0.096,4.915,0.144,10.624,0.144,17.127c0,6.942-0.058,12.996-0.173,18.16
				c-0.019,0.938-0.066,1.778-0.144,2.524c-0.076,0.746-0.152,1.243-0.229,1.492l0.488,0.201l5.049-4.046l0.258,0.315
				c2.047,2.43,4.715,3.644,8.005,3.644c3.844,0,6.957-1.448,9.339-4.346c2.381-2.897,3.571-6.68,3.571-11.347
				c0-4.035-1.091-7.302-3.272-9.798C737.924,450.057,735.072,448.809,731.551,448.809z M735.919,472.391
				c-1.414,2.123-3.479,3.185-6.193,3.185c-2.505,0-4.426-1.106-5.764-2.962c-1.357-1.854-2.036-4.097-2.036-8.097h-0.028
				c0-4,0.73-7.539,2.193-9.891c1.462-2.353,3.551-3.439,6.266-3.439c2.466,0,4.363,1.067,5.692,3.113
				c1.328,2.047,1.992,4.977,1.992,8.744C738.041,467.138,737.334,470.268,735.919,472.391z"/>
			<path fill="#FFFFFF" d="M753.706,436.271c-0.842,0-1.549,0.286-2.123,0.86c-0.573,0.573-0.86,1.281-0.86,2.123
				s0.287,1.549,0.86,2.123c0.574,0.573,1.281,0.86,2.123,0.86s1.55-0.287,2.123-0.86c0.574-0.574,0.86-1.281,0.86-2.123
				s-0.286-1.55-0.86-2.123C755.256,436.558,754.548,436.271,753.706,436.271z"/>
			<path fill="#FFFFFF" d="M756.087,451.204c0.058-0.679,0.153-1.286,0.287-1.822c-0.803,0.134-1.712,0.201-2.726,0.201
				c-1.032,0-1.95-0.067-2.754-0.201c0.096,0.498,0.172,1.081,0.229,1.75c0.058,0.67,0.105,1.77,0.144,3.3
				c0.076,2.62,0.115,5.594,0.115,8.922c0,3.386-0.039,6.407-0.115,9.065c-0.038,1.531-0.086,2.631-0.144,3.3
				c-0.058,0.67-0.134,1.253-0.229,1.75c0.804-0.096,1.712-0.144,2.726-0.144c1.033,0,1.951,0.048,2.754,0.144
				c-0.096-0.497-0.172-1.08-0.229-1.75c-0.058-0.669-0.105-1.769-0.144-3.3c-0.076-2.658-0.114-5.68-0.114-9.065l0.086-8.922
				C755.991,452.959,756.03,451.883,756.087,451.204z"/>
			<path fill="#FFFFFF" d="M785.895,451.989c-2.065-2.217-5.059-3.473-8.979-3.473h-0.058c-3.883,0-7.028,1.514-9.438,4.248
				c-2.41,2.736-3.615,6.385-3.615,10.803c0,4.284,1.234,7.793,3.701,10.451c2.468,2.658,5.689,4.005,9.668,4.005
				c2.066,0,4.003-0.258,5.81-0.793c1.808-0.535,3.467-1.335,4.978-2.406c0.058-0.517,0.124-0.948,0.201-1.303
				c0.076-0.354,0.182-0.777,0.315-1.275l-0.517-0.66c-1.319,1.454-2.764,2.545-4.332,3.272c-1.568,0.727-3.262,1.09-5.078,1.09
				c-3.041,0-5.401-0.985-7.056-2.955S769,468.222,769,464.587v-1.07h10.009c1.932,0,3.866,0.038,5.798,0.134
				c1.934,0.096,3.193,0.201,4.193,0.334v-0.028l0.055-1.578c0-0.707-0.031-1.469-0.088-2.139
				C788.737,456.739,787.712,453.94,785.895,451.989z M784,460.517h-14.832c0.287-2,0.889-4.779,1.807-6.381
				c1.301-2.307,3.231-3.348,5.794-3.348c2.065,0,3.901,0.878,5.165,2.519c1.262,1.64,2.066,3.852,2.066,6.521V460.517z"/>
			<path fill="#FFFFFF" d="M819,472.419v-13.655c0-3.061-0.951-5.484-2.652-7.273c-1.703-1.788-4.057-2.682-6.964-2.682
				c-3.098,0-5.715,1.08-7.8,3.241c-0.573,0.632-1.131,1.311-1.646,2.037l0.107-1.692c0.076-1.033,0.136-1.75,0.184-2.152
				c0.048-0.401,0.118-0.688,0.214-0.86c-0.765,0.134-1.646,0.201-2.64,0.201c-0.995,0-1.876-0.067-2.641-0.201
				c0.076,0.325,0.139,0.828,0.187,1.506c0.048,0.68,0.109,1.86,0.187,3.544c0.096,2.62,0.134,5.594,0.114,8.922
				c0,3.386-0.038,6.407-0.114,9.065c-0.039,1.531-0.086,2.631-0.144,3.3c-0.058,0.688-0.134,1.272-0.229,1.75
				c0.803-0.096,1.711-0.144,2.726-0.144c1.032,0,1.95,0.048,2.754,0.144c-0.096-0.497-0.172-1.08-0.229-1.75
				c-0.058-0.669-0.183-1.769-0.221-3.3c-0.076-2.658-0.191-5.68-0.191-9.065v-1.979c0-3.137,0.684-5.489,1.898-7.058
				s3.064-2.353,5.475-2.353c2.143,0,3.715,0.723,4.92,2.166c1.205,1.444,1.707,3.448,1.707,6.011v3.271
				c0,3.309,0.082,6.312,0.006,9.008c-0.039,1.531-0.027,2.636-0.084,3.314s-0.104,1.258-0.199,1.735
				c0.803-0.096,1.727-0.144,2.741-0.144c1.013,0,1.929,0.048,2.731,0.144c-0.153-1.128-0.154-2.027-0.212-2.697
				C818.926,474.103,819,473.318,819,472.419z"/>
			<path fill="#FFFFFF" d="M847.662,451.989c-2.065-2.217-5.059-3.473-8.979-3.473h-0.058c-3.883,0-7.028,1.514-9.438,4.248
				c-2.41,2.736-3.615,6.385-3.615,10.803c0,4.284,1.234,7.793,3.701,10.451c2.468,2.658,5.689,4.005,9.668,4.005
				c2.066,0,4.003-0.258,5.81-0.793c1.808-0.535,3.467-1.335,4.978-2.406c0.058-0.517,0.124-0.948,0.201-1.303
				c0.076-0.354,0.182-0.777,0.315-1.275l-0.517-0.66c-1.319,1.454-2.764,2.545-4.332,3.272c-1.568,0.727-3.262,1.09-5.078,1.09
				c-3.041,0-5.284-0.985-6.94-2.955c-1.654-1.97-2.377-4.771-2.377-8.406v-1.07h9.776c1.932,0,3.983,0.038,5.915,0.134
				s3.309,0.201,4.309,0.334v-0.028l-0.063-1.578c0-0.707-0.089-1.469-0.146-2.139C850.563,456.739,849.479,453.94,847.662,451.989z
				 M845,460.517h-14.064c0.287-2,0.889-4.779,1.807-6.381c1.301-2.307,3.231-3.348,5.794-3.348c2.065,0,3.519,0.878,4.78,2.519
				c1.262,1.64,1.684,3.852,1.684,6.521V460.517z"/>
			<path fill="#FFFFFF" d="M865.536,461.029c-2.123-0.535-3.644-1.214-4.562-2.036c-0.938-0.842-1.405-1.941-1.405-3.3
				c0-1.415,0.453-2.577,1.361-3.485s2.079-1.363,3.513-1.363c1.262,0,2.38,0.341,3.354,1.022c0.976,0.681,1.73,1.645,2.266,2.892
				c0.307-0.805,0.595-1.485,0.863-2.041c0.25-0.556,0.585-1.198,1.007-1.926c-0.898-0.632-1.96-1.121-3.185-1.466
				c-1.224-0.346-2.534-0.518-3.93-0.518c-2.544,0-4.69,0.799-6.441,2.396c-1.75,1.597-2.625,3.553-2.625,5.866
				c0,2.353,0.574,4.15,1.722,5.394c1.166,1.244,3.185,2.229,6.054,2.955c2.142,0.556,3.682,1.244,4.619,2.065
				c0.937,0.823,1.405,1.903,1.405,3.242c0,1.55-0.545,2.816-1.635,3.802c-1.091,0.985-2.486,1.478-4.188,1.478
				c-1.473,0-2.792-0.364-3.958-1.092c-1.167-0.728-2.113-1.771-2.84-3.131c-0.269,0.823-0.518,1.527-0.747,2.11
				c-0.229,0.584-0.526,1.269-0.891,2.053c0.842,0.708,1.903,1.235,3.185,1.579c1.281,0.345,2.793,0.517,4.533,0.517
				c2.869,0,5.293-0.913,7.272-2.739s2.97-4.069,2.97-6.728c0-2.047-0.574-3.634-1.722-4.763
				C870.365,462.685,868.366,461.757,865.536,461.029z"/>
			<path fill="#FFFFFF" d="M888.774,475.948c-1.32,0-2.188-0.435-2.877-1.306c-0.688-0.87-0.897-2.137-0.897-3.801v-18.849
				c2,0.019,3.394,0.076,4.828,0.172c0.172,0,0.314,0.043,0.563,0.129s0.426,0.187,0.598,0.301
				c-0.076-0.707-0.132-1.319-0.132-1.836s0.03-1.128,0.106-1.836c-0.172,0.115-0.388,0.215-0.636,0.302
				c-0.249,0.086-0.335,0.129-0.526,0.129c-1.415,0.096-2.801,0.153-4.801,0.172v-2.64c0-1.224-0.093-2.391-0.006-3.5
				c0.086-1.108,0.127-1.854,0.262-2.237c-1.014,0.593-1.938,1.062-2.702,1.405c-0.765,0.345-1.72,0.698-2.829,1.062
				c0.134,0.364,0.152,0.961,0.238,1.793s0.037,1.679,0.037,2.539v1.55l-2.27-0.144c-0.172,0-0.336-0.043-0.574-0.129
				c-0.239-0.087-0.434-0.187-0.624-0.302c0.076,0.708,0.124,1.319,0.124,1.836s-0.032,1.129-0.108,1.836
				c0.172-0.114,0.384-0.215,0.633-0.301c0.248-0.086,0.387-0.129,0.578-0.129c0.727-0.076,1.241-0.105,2.241-0.086v18.763
				c0,2.448,0.623,4.26,1.705,5.437c1.08,1.176,2.79,1.764,5.048,1.764c1.567,0,3.023-0.363,4.324-1.09
				c-0.038-0.325-0.048-0.611-0.048-0.86c0-0.229,0.025-0.507,0.063-0.832C890.328,475.719,889.558,475.948,888.774,475.948z"/>
			<path fill="#FFFFFF" d="M917.521,475.948c-0.573,0-0.885-0.239-1.19-0.718c-0.307-0.478-0.33-1.186-0.33-2.123v-14.89
				c0-3.021-1.028-5.345-2.826-6.971s-4.435-2.438-7.781-2.438c-1.512,0-3.121,0.301-4.767,0.903
				c-1.645,0.603-3.095,1.411-4.319,2.424l0.021,3.328l0.659,0.016c0.688-1.535,1.651-2.682,2.895-3.439
				c1.242-0.759,2.771-1.138,4.587-1.138c2.238,0,3.788,0.622,4.944,1.865c1.158,1.243,1.588,3.06,1.588,5.45v0.402
				c0,0.86-0.001,1.468-0.297,1.821c-0.297,0.354-0.801,0.617-1.662,0.789l-7.222,1.406c-2.64,0.497-4.625,1.415-5.992,2.754
				s-2.041,3.041-2.041,5.106c0,2.238,0.759,4.055,2.271,5.451c1.511,1.396,3.483,2.094,5.913,2.094
				c2.543,0,4.916-0.698,7.115-2.094c0.822-0.517,1.54-1.09,2.152-1.722c0.19,0.938,0.46,1.712,0.804,2.324
				c0.612,0.994,1.482,1.491,2.611,1.491c1.721,0.02,3.127-0.286,4.217-0.918l-0.315-1.291
				C918.285,475.91,917.941,475.948,917.521,475.948z M911,471.473c0,0.842-1.172,1.549-2.032,2.123
				c-1.339,0.86-2.862,1.291-4.718,1.291c-1.664,0-2.909-0.431-3.808-1.291c-0.899-0.86-1.33-2.085-1.33-3.672
				c0-1.53,0.564-2.783,1.674-3.759s2.63-1.683,4.849-2.123L911,463.01V471.473z"/>
			<path fill="#FFFFFF" d="M938.622,448.88c-0.335-0.048-0.713-0.071-1.134-0.071c-2.104,0-4.026,1.157-5.938,3.471
				c-0.574,0.67-1.55,1.444-1.55,2.324v-0.172c0-1.588,0.096-2.721,0.173-3.4c0.076-0.679,0.119-1.229,0.215-1.649
				c-0.842,0.134-1.819,0.201-2.891,0.201s-2.038-0.067-2.879-0.201c0.095,0.498,0.167,1.086,0.224,1.765s0.103,1.774,0.142,3.285
				c0.076,2.62,0.112,5.594,0.112,8.922c0,3.386-0.038,6.407-0.114,9.065c-0.039,1.512-0.088,2.602-0.145,3.271
				c-0.058,0.689-0.135,1.282-0.229,1.779c0.803-0.096,1.711-0.144,2.726-0.144c1.032,0,1.95,0.048,2.754,0.144
				c-0.077-0.345-0.139-0.851-0.187-1.521c-0.048-0.669,0.09-1.846,0.014-3.529c-0.096-2.658,0.086-5.68,0.086-9.065v-1.176
				c0-2.869,0.303-5.054,1.307-6.556c1.004-1.501,2.371-2.252,4.303-2.252c0.612,0,1.106,0.062,1.585,0.187
				c0.478,0.124,0.94,0.34,1.438,0.646c0.019-1.033,0.092-1.903,0.245-2.611c0.153-0.707,0.404-1.539,0.769-2.496
				C939.302,449,938.956,448.928,938.622,448.88z"/>
		</g>
	</g>
</g>
</svg>
