<?xml version="1.0" encoding="utf-8"?>
<!-- Generator: Adobe Illustrator 16.0.0, SVG Export Plug-In . SVG Version: 6.00 Build 0)  -->
<!DOCTYPE svg PUBLIC "-//W3C//DTD SVG 1.1//EN" "http://www.w3.org/Graphics/SVG/1.1/DTD/svg11.dtd">
<svg version="1.1" id="Layer_1" xmlns="http://www.w3.org/2000/svg" xmlns:xlink="http://www.w3.org/1999/xlink" x="0px" y="0px"
	 width="40px" height="40px" viewBox="620 380 40 40" enable-background="new 620 380 40 40" xml:space="preserve">
<path fill="#FFFFFF" d="M639.875,381.251c-9,0-16.249,7.375-16.249,16.374c0,0.25,0,10.062,0,10.062c0,0.626,0.5,1.126,1.188,1.126
	h2.5c0.625,0,1.125,0.562,1.125,1.188v7.498c0,0.626,0.5,1.251,1.187,1.251h6.188c11.249-0.063,20.312-7.812,20.312-21.186
	C656.124,388.563,648.875,381.251,639.875,381.251z M647,401.375c-2.187,2.188-5.063,3.25-7.875,3.25
	c-2.875,0-5.687-1.063-7.874-3.25l0.999-1c3.813,3.813,9.999,3.813,13.812,0c3-2.999,3-7.874,0-10.874
	c-1.125-1.125-2.624-1.75-4.249-1.75c-1.625,0-3.125,0.625-4.25,1.75c-1.813,1.813-1.813,4.75,0,6.625
	c1.375,1.375,3.687,1.375,5.062,0c0.5-0.5,0.813-1.188,0.813-1.938c0-0.75-0.313-1.437-0.813-1.938
	c-0.438-0.437-1.125-0.625-1.751-0.562c0.626,0,1.188,0.375,1.501,0.875c0.625,0.813,0.563,2-0.188,2.75
	c-0.938,0.938-2.563,0.938-3.5,0c-0.563-0.562-0.875-1.25-0.875-2.062c0-0.75,0.312-1.5,0.875-2.063c0.625-0.625,1.499-1,2.437-1
	c0.938,0,1.813,0.375,2.438,1c0.749,0.75,1.187,1.813,1.187,2.938c0,1.125-0.438,2.125-1.187,2.937
	c-1.938,1.938-5.125,1.938-7.063,0c-2.375-2.374-2.375-6.187,0-8.562c1.375-1.375,3.25-2.188,5.25-2.188
	c1.999,0,3.813,0.75,5.25,2.188C650.5,392.063,650.5,397.813,647,401.375z"/>
<path fill="#FFFFFF" d="M651.815,190.031c0.984,0,1.97,0,1.97,0l0,0C652.8,190.031,651.815,190.031,651.815,190.031z"/>
</svg>
